<svg width="36" height="36" viewBox="0 0 36 36" fill="none" xmlns="http://www.w3.org/2000/svg">
<path d="M4.75256 15.3236H7.97522C7.97724 15.3236 7.97957 15.3243 7.98108 15.3256C7.98262 15.3271 7.98391 15.3293 7.98401 15.3315V15.3344C8.11429 17.9036 9.22662 20.3249 11.0914 22.0971C12.9563 23.8692 15.431 24.8566 18.0035 24.8559C20.5761 24.8551 23.0499 23.8655 24.9137 22.0922C26.7766 20.3197 27.8877 17.8995 28.0172 15.3315C28.0173 15.3294 28.0186 15.327 28.0201 15.3256C28.0215 15.3244 28.0232 15.3237 28.025 15.3236H31.2487L31.2545 15.3256C31.2553 15.3264 31.2561 15.3275 31.2565 15.3285V15.3305C31.1277 18.7591 29.6749 22.005 27.2028 24.3842C24.7306 26.7634 21.4317 28.091 18.0006 28.0883H17.9996C14.5687 28.0908 11.2704 26.7624 8.79846 24.3832C6.40387 22.0784 4.96495 18.9613 4.76038 15.6518L4.74475 15.3305L4.74573 15.3285L4.7467 15.3256L4.75256 15.3236ZM12.1764 7.91641C13.3622 7.91641 14.3239 8.87809 14.3239 10.0639C14.3236 11.2495 13.3621 12.2104 12.1764 12.2104C10.9908 12.2103 10.0291 11.2494 10.0289 10.0639C10.0289 8.87812 10.9906 7.91646 12.1764 7.91641ZM25.9703 8.99649V11.1303H20.6178V8.99649H25.9703Z" fill="#E60000" stroke="#E60000"/>
</svg>
