<svg width="36" height="36" viewBox="0 0 36 36" fill="none" xmlns="http://www.w3.org/2000/svg">
<g clip-path="url(#clip0_35_4671)">
<path d="M18 36C27.9411 36 36 27.9411 36 18C36 8.05887 27.9411 0 18 0C8.05887 0 0 8.05887 0 18C0 27.9411 8.05887 36 18 36Z" fill="#E60000"/>
<path d="M18.1397 28.0383C13.1942 28.0548 8.04812 23.8332 8.02653 17.0551C8.0151 12.5732 10.4332 8.25896 13.5244 5.69352C16.5395 3.19666 20.6696 1.59516 24.4161 1.58246C24.8988 1.58246 25.403 1.62056 25.7116 1.72597C22.4362 2.40543 19.8288 5.45348 19.8403 8.91175C19.8398 9.00995 19.847 9.10805 19.8619 9.20512C25.3433 10.5399 27.8312 13.847 27.8465 18.4229C27.8617 22.9988 24.2498 28.0179 18.1397 28.0383Z" fill="white"/>
</g>
<defs>
<clipPath id="clip0_35_4671">
<rect width="36" height="36" fill="white"/>
</clipPath>
</defs>
</svg>
